<?xml version="1.0" standalone="no"?>
<svg xmlns="http://www.w3.org/2000/svg" width="500" height="500"><defs><clipPath id="clip-path-dot-color"><circle cx="26" cy="282" r="8" transform="rotate(0,26,282)"/><path d="M 18 306v 16h 8a 8 8, 0, 0, 0, 0 -16" transform="rotate(180,26,314)"/><circle cx="26" cy="346" r="8" transform="rotate(0,26,346)"/><circle cx="42" cy="186" r="8" transform="rotate(0,42,186)"/><path d="M 34 226v 16h 8a 8 8, 0, 0, 0, 0 -16" transform="rotate(180,42,234)"/><path d="M 34 258v 16h 8a 8 8, 0, 0, 0, 0 -16" transform="rotate(180,42,266)"/><path d="M 34 290v 16h 16v -8a 8 8, 0, 0, 0, -8 -8" transform="rotate(-90,42,298)"/><rect x="34" y="306" width="16" height="16" transform="rotate(0,42,314)"/><path d="M 34 322v 16h 16v -8a 8 8, 0, 0, 0, -8 -8" transform="rotate(180,42,330)"/><path d="M 50 146v 16h 8a 8 8, 0, 0, 0, 0 -16" transform="rotate(-90,58,154)"/><path d="M 50 162v 16h 8a 8 8, 0, 0, 0, 0 -16" transform="rotate(90,58,170)"/><path d="M 50 226v 16h 16v -8a 8 8, 0, 0, 0, -8 -8" transform="rotate(0,58,234)"/><rect x="50" y="242" width="16" height="16" transform="rotate(0,58,250)"/><rect x="50" y="258" width="16" height="16" transform="rotate(0,58,266)"/><rect x="50" y="274" width="16" height="16" transform="rotate(0,58,282)"/><path d="M 50 290v 16h 16v -8a 8 8, 0, 0, 0, -8 -8" transform="rotate(90,58,298)"/><rect x="50" y="322" width="16" height="16" transform="rotate(0,58,330)"/><path d="M 50 338v 16h 16v -8a 8 8, 0, 0, 0, -8 -8" transform="rotate(180,58,346)"/><path d="M 66 306v 16h 16v -8a 8 8, 0, 0, 0, -8 -8" transform="rotate(-90,74,314)"/><rect x="66" y="322" width="16" height="16" transform="rotate(0,74,330)"/><path d="M 66 338v 16h 16v -8a 8 8, 0, 0, 0, -8 -8" transform="rotate(90,74,346)"/><path d="M 82 146v 16h 8a 8 8, 0, 0, 0, 0 -16" transform="rotate(180,90,154)"/><path d="M 82 194v 16h 8a 8 8, 0, 0, 0, 0 -16" transform="rotate(180,90,202)"/><path d="M 82 226v 16h 16v -8a 8 8, 0, 0, 0, -8 -8" transform="rotate(-90,90,234)"/><path d="M 82 242v 16h 16v -8a 8 8, 0, 0, 0, -8 -8" transform="rotate(180,90,250)"/><path d="M 82 274v 16h 8a 8 8, 0, 0, 0, 0 -16" transform="rotate(-90,90,282)"/><rect x="82" y="290" width="16" height="16" transform="rotate(0,90,298)"/><path d="M 82 306v 16h 16v -8a 8 8, 0, 0, 0, -8 -8" transform="rotate(90,90,314)"/><rect x="98" y="146" width="16" height="16" transform="rotate(0,106,154)"/><path d="M 98 162v 16h 8a 8 8, 0, 0, 0, 0 -16" transform="rotate(90,106,170)"/><path d="M 98 194v 16h 16v -8a 8 8, 0, 0, 0, -8 -8" transform="rotate(0,106,202)"/><rect x="98" y="210" width="16" height="16" transform="rotate(0,106,218)"/><rect x="98" y="226" width="16" height="16" transform="rotate(0,106,234)"/><rect x="98" y="242" width="16" height="16" transform="rotate(0,106,250)"/><path d="M 98 258v 16h 8a 8 8, 0, 0, 0, 0 -16" transform="rotate(90,106,266)"/><path d="M 98 290v 16h 8a 8 8, 0, 0, 0, 0 -16" transform="rotate(0,106,298)"/><circle cx="106" cy="330" r="8" transform="rotate(0,106,330)"/><path d="M 114 146v 16h 8a 8 8, 0, 0, 0, 0 -16" transform="rotate(0,122,154)"/><circle cx="122" cy="186" r="8" transform="rotate(0,122,186)"/><path d="M 114 210v 16h 8a 8 8, 0, 0, 0, 0 -16" transform="rotate(0,122,218)"/><path d="M 114 242v 16h 8a 8 8, 0, 0, 0, 0 -16" transform="rotate(0,122,250)"/><circle cx="122" cy="282" r="8" transform="rotate(0,122,282)"/><path d="M 114 306v 16h 8a 8 8, 0, 0, 0, 0 -16" transform="rotate(180,122,314)"/><circle cx="122" cy="346" r="8" transform="rotate(0,122,346)"/><path d="M 130 162v 16h 8a 8 8, 0, 0, 0, 0 -16" transform="rotate(180,138,170)"/><path d="M 130 290v 16h 8a 8 8, 0, 0, 0, 0 -16" transform="rotate(-90,138,298)"/><rect x="130" y="306" width="16" height="16" transform="rotate(0,138,314)"/><path d="M 146 34v 16h 8a 8 8, 0, 0, 0, 0 -16" transform="rotate(180,154,42)"/><path d="M 146 82v 16h 8a 8 8, 0, 0, 0, 0 -16" transform="rotate(180,154,90)"/><circle cx="154" cy="122" r="8" transform="rotate(0,154,122)"/><path d="M 146 146v 16h 8a 8 8, 0, 0, 0, 0 -16" transform="rotate(-90,154,154)"/><rect x="146" y="162" width="16" height="16" transform="rotate(0,154,170)"/><path d="M 146 194v 16h 16v -8a 8 8, 0, 0, 0, -8 -8" transform="rotate(-90,154,202)"/><rect x="146" y="210" width="16" height="16" transform="rotate(0,154,218)"/><path d="M 146 226v 16h 8a 8 8, 0, 0, 0, 0 -16" transform="rotate(90,154,234)"/><path d="M 146 274v 16h 8a 8 8, 0, 0, 0, 0 -16" transform="rotate(180,154,282)"/><rect x="146" y="306" width="16" height="16" transform="rotate(0,154,314)"/><rect x="146" y="322" width="16" height="16" transform="rotate(0,154,330)"/><rect x="146" y="338" width="16" height="16" transform="rotate(0,154,346)"/><path d="M 146 354v 16h 16v -8a 8 8, 0, 0, 0, -8 -8" transform="rotate(180,154,362)"/><path d="M 146 386v 16h 16v -8a 8 8, 0, 0, 0, -8 -8" transform="rotate(-90,154,394)"/><path d="M 146 402v 16h 16v -8a 8 8, 0, 0, 0, -8 -8" transform="rotate(180,154,410)"/><circle cx="154" cy="442" r="8" transform="rotate(0,154,442)"/><path d="M 162 18v 16h 16v -8a 8 8, 0, 0, 0, -8 -8" transform="rotate(-90,170,26)"/><rect x="162" y="34" width="16" height="16" transform="rotate(0,170,42)"/><path d="M 162 50v 16h 16v -8a 8 8, 0, 0, 0, -8 -8" transform="rotate(180,170,58)"/><path d="M 162 82v 16h 8a 8 8, 0, 0, 0, 0 -16" transform="rotate(0,170,90)"/><path d="M 162 130v 16h 8a 8 8, 0, 0, 0, 0 -16" transform="rotate(180,170,138)"/><rect x="162" y="162" width="16" height="16" transform="rotate(0,170,170)"/><rect x="162" y="178" width="16" height="16" transform="rotate(0,170,186)"/><path d="M 162 194v 16h 16v -8a 8 8, 0, 0, 0, -8 -8" transform="rotate(90,170,202)"/><path d="M 162 274v 16h 16v -8a 8 8, 0, 0, 0, -8 -8" transform="rotate(0,170,282)"/><rect x="162" y="290" width="16" height="16" transform="rotate(0,170,298)"/><rect x="162" y="306" width="16" height="16" transform="rotate(0,170,314)"/><rect x="162" y="354" width="16" height="16" transform="rotate(0,170,362)"/><rect x="162" y="370" width="16" height="16" transform="rotate(0,170,378)"/><rect x="162" y="386" width="16" height="16" transform="rotate(0,170,394)"/><path d="M 162 402v 16h 16v -8a 8 8, 0, 0, 0, -8 -8" transform="rotate(90,170,410)"/><path d="M 162 450v 16h 8a 8 8, 0, 0, 0, 0 -16" transform="rotate(-90,170,458)"/><path d="M 162 466v 16h 16v -8a 8 8, 0, 0, 0, -8 -8" transform="rotate(180,170,474)"/><path d="M 178 18v 16h 8a 8 8, 0, 0, 0, 0 -16" transform="rotate(0,186,26)"/><rect x="178" y="50" width="16" height="16" transform="rotate(0,186,58)"/><path d="M 178 98v 16h 16v -8a 8 8, 0, 0, 0, -8 -8" transform="rotate(-90,186,106)"/><rect x="178" y="114" width="16" height="16" transform="rotate(0,186,122)"/><rect x="178" y="130" width="16" height="16" transform="rotate(0,186,138)"/><rect x="178" y="146" width="16" height="16" transform="rotate(0,186,154)"/><rect x="178" y="162" width="16" height="16" transform="rotate(0,186,170)"/><rect x="178" y="178" width="16" height="16" transform="rotate(0,186,186)"/><circle cx="186" cy="266" r="8" transform="rotate(0,186,266)"/><path d="M 178 306v 16h 8a 8 8, 0, 0, 0, 0 -16" transform="rotate(0,186,314)"/><path d="M 178 338v 16h 8a 8 8, 0, 0, 0, 0 -16" transform="rotate(-90,186,346)"/><rect x="178" y="354" width="16" height="16" transform="rotate(0,186,362)"/><rect x="178" y="386" width="16" height="16" transform="rotate(0,186,394)"/><circle cx="186" cy="442" r="8" transform="rotate(0,186,442)"/><rect x="178" y="466" width="16" height="16" transform="rotate(0,186,474)"/><path d="M 194 34v 16h 8a 8 8, 0, 0, 0, 0 -16" transform="rotate(-90,202,42)"/><path d="M 194 50v 16h 16v -8a 8 8, 0, 0, 0, -8 -8" transform="rotate(90,202,58)"/><path d="M 194 98v 16h 8a 8 8, 0, 0, 0, 0 -16" transform="rotate(0,202,106)"/><rect x="194" y="130" width="16" height="16" transform="rotate(0,202,138)"/><rect x="194" y="146" width="16" height="16" transform="rotate(0,202,154)"/><rect x="194" y="162" width="16" height="16" transform="rotate(0,202,170)"/><path d="M 194 178v 16h 16v -8a 8 8, 0, 0, 0, -8 -8" transform="rotate(90,202,186)"/><path d="M 194 210v 16h 8a 8 8, 0, 0, 0, 0 -16" transform="rotate(-90,202,218)"/><rect x="194" y="226" width="16" height="16" transform="rotate(0,202,234)"/><path d="M 194 242v 16h 16v -8a 8 8, 0, 0, 0, -8 -8" transform="rotate(180,202,250)"/><path d="M 194 274v 16h 8a 8 8, 0, 0, 0, 0 -16" transform="rotate(-90,202,282)"/><path d="M 194 290v 16h 16v -8a 8 8, 0, 0, 0, -8 -8" transform="rotate(180,202,298)"/><path d="M 194 354v 16h 8a 8 8, 0, 0, 0, 0 -16" transform="rotate(0,202,362)"/><rect x="194" y="386" width="16" height="16" transform="rotate(0,202,394)"/><rect x="194" y="402" width="16" height="16" transform="rotate(0,202,410)"/><path d="M 194 418v 16h 16v -8a 8 8, 0, 0, 0, -8 -8" transform="rotate(180,202,426)"/><path d="M 194 450v 16h 8a 8 8, 0, 0, 0, 0 -16" transform="rotate(-90,202,458)"/><rect x="194" y="466" width="16" height="16" transform="rotate(0,202,474)"/><path d="M 210 18v 16h 8a 8 8, 0, 0, 0, 0 -16" transform="rotate(180,218,26)"/><path d="M 210 82v 16h 8a 8 8, 0, 0, 0, 0 -16" transform="rotate(180,218,90)"/><path d="M 210 114v 16h 8a 8 8, 0, 0, 0, 0 -16" transform="rotate(-90,218,122)"/><path d="M 210 130v 16h 16v -8a 8 8, 0, 0, 0, -8 -8" transform="rotate(90,218,138)"/><rect x="210" y="162" width="16" height="16" transform="rotate(0,218,170)"/><circle cx="218" cy="202" r="8" transform="rotate(0,218,202)"/><path d="M 210 242v 16h 16v -8a 8 8, 0, 0, 0, -8 -8" transform="rotate(0,218,250)"/><path d="M 210 258v 16h 8a 8 8, 0, 0, 0, 0 -16" transform="rotate(90,218,266)"/><rect x="210" y="290" width="16" height="16" transform="rotate(0,218,298)"/><circle cx="218" cy="346" r="8" transform="rotate(0,218,346)"/><path d="M 210 386v 16h 8a 8 8, 0, 0, 0, 0 -16" transform="rotate(0,218,394)"/><path d="M 210 418v 16h 8a 8 8, 0, 0, 0, 0 -16" transform="rotate(0,218,426)"/><rect x="210" y="466" width="16" height="16" transform="rotate(0,218,474)"/><rect x="226" y="18" width="16" height="16" transform="rotate(0,234,26)"/><path d="M 226 66v 16h 8a 8 8, 0, 0, 0, 0 -16" transform="rotate(-90,234,74)"/><rect x="226" y="82" width="16" height="16" transform="rotate(0,234,90)"/><path d="M 226 98v 16h 16v -8a 8 8, 0, 0, 0, -8 -8" transform="rotate(180,234,106)"/><path d="M 226 146v 16h 16v -8a 8 8, 0, 0, 0, -8 -8" transform="rotate(-90,234,154)"/><rect x="226" y="162" width="16" height="16" transform="rotate(0,234,170)"/><path d="M 226 210v 16h 8a 8 8, 0, 0, 0, 0 -16" transform="rotate(-90,234,218)"/><path d="M 226 226v 16h 16v -8a 8 8, 0, 0, 0, -8 -8" transform="rotate(180,234,234)"/><path d="M 226 274v 16h 16v -8a 8 8, 0, 0, 0, -8 -8" transform="rotate(-90,234,282)"/><rect x="226" y="290" width="16" height="16" transform="rotate(0,234,298)"/><path d="M 226 306v 16h 16v -8a 8 8, 0, 0, 0, -8 -8" transform="rotate(180,234,314)"/><path d="M 226 370v 16h 8a 8 8, 0, 0, 0, 0 -16" transform="rotate(180,234,378)"/><path d="M 226 402v 16h 8a 8 8, 0, 0, 0, 0 -16" transform="rotate(180,234,410)"/><circle cx="234" cy="442" r="8" transform="rotate(0,234,442)"/><rect x="226" y="466" width="16" height="16" transform="rotate(0,234,474)"/><path d="M 242 18v 16h 16v -8a 8 8, 0, 0, 0, -8 -8" transform="rotate(0,250,26)"/><path d="M 242 34v 16h 16v -8a 8 8, 0, 0, 0, -8 -8" transform="rotate(180,250,42)"/><path d="M 242 98v 16h 16v -8a 8 8, 0, 0, 0, -8 -8" transform="rotate(0,250,106)"/><path d="M 242 114v 16h 8a 8 8, 0, 0, 0, 0 -16" transform="rotate(90,250,122)"/><rect x="242" y="146" width="16" height="16" transform="rotate(0,250,154)"/><rect x="242" y="162" width="16" height="16" transform="rotate(0,250,170)"/><path d="M 242 226v 16h 16v -8a 8 8, 0, 0, 0, -8 -8" transform="rotate(0,250,234)"/><path d="M 242 242v 16h 8a 8 8, 0, 0, 0, 0 -16" transform="rotate(90,250,250)"/><path d="M 242 274v 16h 8a 8 8, 0, 0, 0, 0 -16" transform="rotate(0,250,282)"/><path d="M 242 306v 16h 8a 8 8, 0, 0, 0, 0 -16" transform="rotate(0,250,314)"/><rect x="242" y="370" width="16" height="16" transform="rotate(0,250,378)"/><path d="M 242 402v 16h 8a 8 8, 0, 0, 0, 0 -16" transform="rotate(0,250,410)"/><path d="M 242 450v 16h 16v -8a 8 8, 0, 0, 0, -8 -8" transform="rotate(-90,250,458)"/><path d="M 242 466v 16h 16v -8a 8 8, 0, 0, 0, -8 -8" transform="rotate(90,250,474)"/><rect x="258" y="34" width="16" height="16" transform="rotate(0,266,42)"/><path d="M 258 66v 16h 16v -8a 8 8, 0, 0, 0, -8 -8" transform="rotate(-90,266,74)"/><path d="M 258 82v 16h 8a 8 8, 0, 0, 0, 0 -16" transform="rotate(90,266,90)"/><rect x="258" y="146" width="16" height="16" transform="rotate(0,266,154)"/><rect x="258" y="162" width="16" height="16" transform="rotate(0,266,170)"/><circle cx="266" cy="266" r="8" transform="rotate(0,266,266)"/><circle cx="266" cy="330" r="8" transform="rotate(0,266,330)"/><path d="M 258 370v 16h 16v -8a 8 8, 0, 0, 0, -8 -8" transform="rotate(0,266,378)"/><path d="M 258 386v 16h 8a 8 8, 0, 0, 0, 0 -16" transform="rotate(90,266,394)"/><circle cx="266" cy="426" r="8" transform="rotate(0,266,426)"/><rect x="258" y="450" width="16" height="16" transform="rotate(0,266,458)"/><path d="M 274 18v 16h 16v -8a 8 8, 0, 0, 0, -8 -8" transform="rotate(-90,282,26)"/><path d="M 274 34v 16h 16v -8a 8 8, 0, 0, 0, -8 -8" transform="rotate(90,282,42)"/><rect x="274" y="66" width="16" height="16" transform="rotate(0,282,74)"/><path d="M 274 98v 16h 8a 8 8, 0, 0, 0, 0 -16" transform="rotate(-90,282,106)"/><path d="M 274 114v 16h 8a 8 8, 0, 0, 0, 0 -16" transform="rotate(90,282,122)"/><path d="M 274 146v 16h 16v -8a 8 8, 0, 0, 0, -8 -8" transform="rotate(0,282,154)"/><rect x="274" y="162" width="16" height="16" transform="rotate(0,282,170)"/><rect x="274" y="178" width="16" height="16" transform="rotate(0,282,186)"/><path d="M 274 194v 16h 8a 8 8, 0, 0, 0, 0 -16" transform="rotate(90,282,202)"/><path d="M 274 226v 16h 8a 8 8, 0, 0, 0, 0 -16" transform="rotate(180,282,234)"/><circle cx="282" cy="282" r="8" transform="rotate(0,282,282)"/><path d="M 274 338v 16h 8a 8 8, 0, 0, 0, 0 -16" transform="rotate(-90,282,346)"/><path d="M 274 354v 16h 8a 8 8, 0, 0, 0, 0 -16" transform="rotate(90,282,362)"/><path d="M 274 450v 16h 8a 8 8, 0, 0, 0, 0 -16" transform="rotate(0,282,458)"/><path d="M 290 18v 16h 8a 8 8, 0, 0, 0, 0 -16" transform="rotate(0,298,26)"/><path d="M 290 66v 16h 16v -8a 8 8, 0, 0, 0, -8 -8" transform="rotate(0,298,74)"/><path d="M 290 82v 16h 16v -8a 8 8, 0, 0, 0, -8 -8" transform="rotate(180,298,90)"/><rect x="290" y="162" width="16" height="16" transform="rotate(0,298,170)"/><path d="M 290 210v 16h 16v -8a 8 8, 0, 0, 0, -8 -8" transform="rotate(-90,298,218)"/><rect x="290" y="226" width="16" height="16" transform="rotate(0,298,234)"/><path d="M 290 242v 16h 8a 8 8, 0, 0, 0, 0 -16" transform="rotate(90,298,250)"/><path d="M 290 290v 16h 16v -8a 8 8, 0, 0, 0, -8 -8" transform="rotate(-90,298,298)"/><path d="M 290 306v 16h 8a 8 8, 0, 0, 0, 0 -16" transform="rotate(90,298,314)"/><path d="M 290 370v 16h 8a 8 8, 0, 0, 0, 0 -16" transform="rotate(-90,298,378)"/><rect x="290" y="386" width="16" height="16" transform="rotate(0,298,394)"/><path d="M 290 402v 16h 8a 8 8, 0, 0, 0, 0 -16" transform="rotate(90,298,410)"/><path d="M 290 434v 16h 8a 8 8, 0, 0, 0, 0 -16" transform="rotate(180,298,442)"/><path d="M 290 466v 16h 8a 8 8, 0, 0, 0, 0 -16" transform="rotate(180,298,474)"/><circle cx="314" cy="58" r="8" transform="rotate(0,314,58)"/><path d="M 306 82v 16h 16v -8a 8 8, 0, 0, 0, -8 -8" transform="rotate(0,314,90)"/><rect x="306" y="98" width="16" height="16" transform="rotate(0,314,106)"/><path d="M 306 114v 16h 8a 8 8, 0, 0, 0, 0 -16" transform="rotate(90,314,122)"/><path d="M 306 162v 16h 16v -8a 8 8, 0, 0, 0, -8 -8" transform="rotate(0,314,170)"/><path d="M 306 178v 16h 16v -8a 8 8, 0, 0, 0, -8 -8" transform="rotate(180,314,186)"/><rect x="306" y="210" width="16" height="16" transform="rotate(0,314,218)"/><path d="M 306 258v 16h 8a 8 8, 0, 0, 0, 0 -16" transform="rotate(180,314,266)"/><rect x="306" y="290" width="16" height="16" transform="rotate(0,314,298)"/><path d="M 306 386v 16h 8a 8 8, 0, 0, 0, 0 -16" transform="rotate(0,314,394)"/><path d="M 306 418v 16h 16v -8a 8 8, 0, 0, 0, -8 -8" transform="rotate(-90,314,426)"/><path d="M 306 434v 16h 16v -8a 8 8, 0, 0, 0, -8 -8" transform="rotate(90,314,442)"/><rect x="306" y="466" width="16" height="16" transform="rotate(0,314,474)"/><path d="M 322 66v 16h 8a 8 8, 0, 0, 0, 0 -16" transform="rotate(180,330,74)"/><path d="M 322 98v 16h 8a 8 8, 0, 0, 0, 0 -16" transform="rotate(0,330,106)"/><path d="M 322 130v 16h 16v -8a 8 8, 0, 0, 0, -8 -8" transform="rotate(-90,330,138)"/><path d="M 322 146v 16h 8a 8 8, 0, 0, 0, 0 -16" transform="rotate(90,330,154)"/><path d="M 322 178v 16h 16v -8a 8 8, 0, 0, 0, -8 -8" transform="rotate(0,330,186)"/><rect x="322" y="194" width="16" height="16" transform="rotate(0,330,202)"/><path d="M 322 210v 16h 16v -8a 8 8, 0, 0, 0, -8 -8" transform="rotate(90,330,218)"/><path d="M 322 242v 16h 8a 8 8, 0, 0, 0, 0 -16" transform="rotate(-90,330,250)"/><rect x="322" y="258" width="16" height="16" transform="rotate(0,330,266)"/><rect x="322" y="274" width="16" height="16" transform="rotate(0,330,282)"/><rect x="322" y="290" width="16" height="16" transform="rotate(0,330,298)"/><rect x="322" y="306" width="16" height="16" transform="rotate(0,330,314)"/><rect x="322" y="322" width="16" height="16" transform="rotate(0,330,330)"/><path d="M 322 338v 16h 16v -8a 8 8, 0, 0, 0, -8 -8" transform="rotate(180,330,346)"/><rect x="322" y="418" width="16" height="16" transform="rotate(0,330,426)"/><path d="M 322 450v 16h 16v -8a 8 8, 0, 0, 0, -8 -8" transform="rotate(-90,330,458)"/><rect x="322" y="466" width="16" height="16" transform="rotate(0,330,474)"/><path d="M 338 18v 16h 8a 8 8, 0, 0, 0, 0 -16" transform="rotate(-90,346,26)"/><rect x="338" y="34" width="16" height="16" transform="rotate(0,346,42)"/><rect x="338" y="50" width="16" height="16" transform="rotate(0,346,58)"/><rect x="338" y="66" width="16" height="16" transform="rotate(0,346,74)"/><path d="M 338 82v 16h 8a 8 8, 0, 0, 0, 0 -16" transform="rotate(90,346,90)"/><path d="M 338 114v 16h 8a 8 8, 0, 0, 0, 0 -16" transform="rotate(-90,346,122)"/><path d="M 338 130v 16h 16v -8a 8 8, 0, 0, 0, -8 -8" transform="rotate(90,346,138)"/><circle cx="346" cy="234" r="8" transform="rotate(0,346,234)"/><path d="M 338 274v 16h 16v -8a 8 8, 0, 0, 0, -8 -8" transform="rotate(0,346,282)"/><path d="M 338 290v 16h 16v -8a 8 8, 0, 0, 0, -8 -8" transform="rotate(90,346,298)"/><rect x="338" y="338" width="16" height="16" transform="rotate(0,346,346)"/><rect x="338" y="354" width="16" height="16" transform="rotate(0,346,362)"/><rect x="338" y="370" width="16" height="16" transform="rotate(0,346,378)"/><rect x="338" y="386" width="16" height="16" transform="rotate(0,346,394)"/><rect x="338" y="402" width="16" height="16" transform="rotate(0,346,410)"/><path d="M 338 418v 16h 16v -8a 8 8, 0, 0, 0, -8 -8" transform="rotate(90,346,426)"/><rect x="338" y="450" width="16" height="16" transform="rotate(0,346,458)"/><rect x="338" y="466" width="16" height="16" transform="rotate(0,346,474)"/><path d="M 354 146v 16h 8a 8 8, 0, 0, 0, 0 -16" transform="rotate(-90,362,154)"/><path d="M 354 162v 16h 16v -8a 8 8, 0, 0, 0, -8 -8" transform="rotate(180,362,170)"/><path d="M 354 194v 16h 16v -8a 8 8, 0, 0, 0, -8 -8" transform="rotate(-90,362,202)"/><path d="M 354 210v 16h 8a 8 8, 0, 0, 0, 0 -16" transform="rotate(90,362,218)"/><path d="M 354 242v 16h 16v -8a 8 8, 0, 0, 0, -8 -8" transform="rotate(-90,362,250)"/><path d="M 354 258v 16h 16v -8a 8 8, 0, 0, 0, -8 -8" transform="rotate(180,362,266)"/><path d="M 354 306v 16h 8a 8 8, 0, 0, 0, 0 -16" transform="rotate(-90,362,314)"/><rect x="354" y="322" width="16" height="16" transform="rotate(0,362,330)"/><rect x="354" y="338" width="16" height="16" transform="rotate(0,362,346)"/><rect x="354" y="402" width="16" height="16" transform="rotate(0,362,410)"/><path d="M 354 434v 16h 8a 8 8, 0, 0, 0, 0 -16" transform="rotate(-90,362,442)"/><rect x="354" y="450" width="16" height="16" transform="rotate(0,362,458)"/><rect x="354" y="466" width="16" height="16" transform="rotate(0,362,474)"/><path d="M 370 162v 16h 16v -8a 8 8, 0, 0, 0, -8 -8" transform="rotate(0,378,170)"/><rect x="370" y="178" width="16" height="16" transform="rotate(0,378,186)"/><rect x="370" y="194" width="16" height="16" transform="rotate(0,378,202)"/><rect x="370" y="242" width="16" height="16" transform="rotate(0,378,250)"/><rect x="370" y="258" width="16" height="16" transform="rotate(0,378,266)"/><path d="M 370 290v 16h 8a 8 8, 0, 0, 0, 0 -16" transform="rotate(180,378,298)"/><rect x="370" y="322" width="16" height="16" transform="rotate(0,378,330)"/><rect x="370" y="338" width="16" height="16" transform="rotate(0,378,346)"/><circle cx="378" cy="378" r="8" transform="rotate(0,378,378)"/><rect x="370" y="402" width="16" height="16" transform="rotate(0,378,410)"/><path d="M 370 450v 16h 16v -8a 8 8, 0, 0, 0, -8 -8" transform="rotate(0,378,458)"/><rect x="370" y="466" width="16" height="16" transform="rotate(0,378,474)"/><path d="M 386 178v 16h 16v -8a 8 8, 0, 0, 0, -8 -8" transform="rotate(0,394,186)"/><rect x="386" y="194" width="16" height="16" transform="rotate(0,394,202)"/><path d="M 386 226v 16h 8a 8 8, 0, 0, 0, 0 -16" transform="rotate(-90,394,234)"/><rect x="386" y="242" width="16" height="16" transform="rotate(0,394,250)"/><rect x="386" y="258" width="16" height="16" transform="rotate(0,394,266)"/><rect x="386" y="274" width="16" height="16" transform="rotate(0,394,282)"/><rect x="386" y="290" width="16" height="16" transform="rotate(0,394,298)"/><rect x="386" y="306" width="16" height="16" transform="rotate(0,394,314)"/><rect x="386" y="322" width="16" height="16" transform="rotate(0,394,330)"/><rect x="386" y="338" width="16" height="16" transform="rotate(0,394,346)"/><rect x="386" y="402" width="16" height="16" transform="rotate(0,394,410)"/><path d="M 386 418v 16h 8a 8 8, 0, 0, 0, 0 -16" transform="rotate(90,394,426)"/><path d="M 386 466v 16h 8a 8 8, 0, 0, 0, 0 -16" transform="rotate(0,394,474)"/><path d="M 402 146v 16h 8a 8 8, 0, 0, 0, 0 -16" transform="rotate(-90,410,154)"/><path d="M 402 162v 16h 16v -8a 8 8, 0, 0, 0, -8 -8" transform="rotate(180,410,170)"/><rect x="402" y="194" width="16" height="16" transform="rotate(0,410,202)"/><path d="M 402 210v 16h 16v -8a 8 8, 0, 0, 0, -8 -8" transform="rotate(180,410,218)"/><path d="M 402 258v 16h 8a 8 8, 0, 0, 0, 0 -16" transform="rotate(0,410,266)"/><path d="M 402 306v 16h 16v -8a 8 8, 0, 0, 0, -8 -8" transform="rotate(0,410,314)"/><rect x="402" y="322" width="16" height="16" transform="rotate(0,410,330)"/><rect x="402" y="338" width="16" height="16" transform="rotate(0,410,346)"/><rect x="402" y="354" width="16" height="16" transform="rotate(0,410,362)"/><rect x="402" y="370" width="16" height="16" transform="rotate(0,410,378)"/><rect x="402" y="386" width="16" height="16" transform="rotate(0,410,394)"/><path d="M 402 402v 16h 16v -8a 8 8, 0, 0, 0, -8 -8" transform="rotate(90,410,410)"/><path d="M 418 162v 16h 16v -8a 8 8, 0, 0, 0, -8 -8" transform="rotate(0,426,170)"/><rect x="418" y="178" width="16" height="16" transform="rotate(0,426,186)"/><rect x="418" y="194" width="16" height="16" transform="rotate(0,426,202)"/><rect x="418" y="210" width="16" height="16" transform="rotate(0,426,218)"/><path d="M 418 226v 16h 8a 8 8, 0, 0, 0, 0 -16" transform="rotate(90,426,234)"/><path d="M 418 274v 16h 16v -8a 8 8, 0, 0, 0, -8 -8" transform="rotate(-90,426,282)"/><path d="M 418 290v 16h 8a 8 8, 0, 0, 0, 0 -16" transform="rotate(90,426,298)"/><path d="M 418 386v 16h 8a 8 8, 0, 0, 0, 0 -16" transform="rotate(0,426,394)"/><path d="M 418 418v 16h 8a 8 8, 0, 0, 0, 0 -16" transform="rotate(180,426,426)"/><path d="M 418 450v 16h 8a 8 8, 0, 0, 0, 0 -16" transform="rotate(180,426,458)"/><path d="M 434 194v 16h 8a 8 8, 0, 0, 0, 0 -16" transform="rotate(0,442,202)"/><circle cx="442" cy="250" r="8" transform="rotate(0,442,250)"/><path d="M 434 274v 16h 8a 8 8, 0, 0, 0, 0 -16" transform="rotate(0,442,282)"/><path d="M 434 322v 16h 8a 8 8, 0, 0, 0, 0 -16" transform="rotate(-90,442,330)"/><rect x="434" y="338" width="16" height="16" transform="rotate(0,442,346)"/><path d="M 434 354v 16h 16v -8a 8 8, 0, 0, 0, -8 -8" transform="rotate(180,442,362)"/><rect x="434" y="418" width="16" height="16" transform="rotate(0,442,426)"/><rect x="434" y="450" width="16" height="16" transform="rotate(0,442,458)"/><path d="M 434 466v 16h 16v -8a 8 8, 0, 0, 0, -8 -8" transform="rotate(180,442,474)"/><path d="M 450 146v 16h 8a 8 8, 0, 0, 0, 0 -16" transform="rotate(-90,458,154)"/><rect x="450" y="162" width="16" height="16" transform="rotate(0,458,170)"/><path d="M 450 178v 16h 16v -8a 8 8, 0, 0, 0, -8 -8" transform="rotate(180,458,186)"/><path d="M 450 210v 16h 16v -8a 8 8, 0, 0, 0, -8 -8" transform="rotate(-90,458,218)"/><path d="M 450 226v 16h 16v -8a 8 8, 0, 0, 0, -8 -8" transform="rotate(180,458,234)"/><path d="M 450 290v 16h 16v -8a 8 8, 0, 0, 0, -8 -8" transform="rotate(-90,458,298)"/><path d="M 450 306v 16h 16v -8a 8 8, 0, 0, 0, -8 -8" transform="rotate(180,458,314)"/><rect x="450" y="338" width="16" height="16" transform="rotate(0,458,346)"/><rect x="450" y="354" width="16" height="16" transform="rotate(0,458,362)"/><rect x="450" y="370" width="16" height="16" transform="rotate(0,458,378)"/><path d="M 450 386v 16h 8a 8 8, 0, 0, 0, 0 -16" transform="rotate(90,458,394)"/><path d="M 450 418v 16h 8a 8 8, 0, 0, 0, 0 -16" transform="rotate(0,458,426)"/><rect x="450" y="450" width="16" height="16" transform="rotate(0,458,458)"/><path d="M 450 466v 16h 16v -8a 8 8, 0, 0, 0, -8 -8" transform="rotate(90,458,474)"/><path d="M 466 162v 16h 16v -8a 8 8, 0, 0, 0, -8 -8" transform="rotate(0,474,170)"/><path d="M 466 178v 16h 16v -8a 8 8, 0, 0, 0, -8 -8" transform="rotate(90,474,186)"/><path d="M 466 210v 16h 16v -8a 8 8, 0, 0, 0, -8 -8" transform="rotate(0,474,218)"/><path d="M 466 226v 16h 16v -8a 8 8, 0, 0, 0, -8 -8" transform="rotate(90,474,234)"/><path d="M 466 258v 16h 8a 8 8, 0, 0, 0, 0 -16" transform="rotate(-90,474,266)"/><rect x="466" y="274" width="16" height="16" transform="rotate(0,474,282)"/><rect x="466" y="290" width="16" height="16" transform="rotate(0,474,298)"/><rect x="466" y="306" width="16" height="16" transform="rotate(0,474,314)"/><rect x="466" y="322" width="16" height="16" transform="rotate(0,474,330)"/><path d="M 466 338v 16h 16v -8a 8 8, 0, 0, 0, -8 -8" transform="rotate(90,474,346)"/><path d="M 466 370v 16h 8a 8 8, 0, 0, 0, 0 -16" transform="rotate(0,474,378)"/><circle cx="474" cy="410" r="8" transform="rotate(0,474,410)"/><path d="M 466 450v 16h 8a 8 8, 0, 0, 0, 0 -16" transform="rotate(0,474,458)"/></clipPath><clipPath id="clip-path-corners-square-color-0-0"><path clip-rule="evenodd" d="M 18 58v 32a 40 40, 0, 0, 0, 40 40h 32a 40 40, 0, 0, 0, 40 -40v -32a 40 40, 0, 0, 0, -40 -40h -32a 40 40, 0, 0, 0, -40 40M 58 34h 32a 24 24, 0, 0, 1, 24 24v 32a 24 24, 0, 0, 1, -24 24h -32a 24 24, 0, 0, 1, -24 -24v -32a 24 24, 0, 0, 1, 24 -24" transform="rotate(0,74,74)"/></clipPath><clipPath id="clip-path-corners-dot-color-0-0"><circle cx="74" cy="74" r="24" transform="rotate(0,74,74)"/></clipPath><clipPath id="clip-path-corners-square-color-1-0"><path clip-rule="evenodd" d="M 370 58v 32a 40 40, 0, 0, 0, 40 40h 32a 40 40, 0, 0, 0, 40 -40v -32a 40 40, 0, 0, 0, -40 -40h -32a 40 40, 0, 0, 0, -40 40M 410 34h 32a 24 24, 0, 0, 1, 24 24v 32a 24 24, 0, 0, 1, -24 24h -32a 24 24, 0, 0, 1, -24 -24v -32a 24 24, 0, 0, 1, 24 -24" transform="rotate(90,426,74)"/></clipPath><clipPath id="clip-path-corners-dot-color-1-0"><circle cx="426" cy="74" r="24" transform="rotate(90,426,74)"/></clipPath><clipPath id="clip-path-corners-square-color-0-1"><path clip-rule="evenodd" d="M 18 410v 32a 40 40, 0, 0, 0, 40 40h 32a 40 40, 0, 0, 0, 40 -40v -32a 40 40, 0, 0, 0, -40 -40h -32a 40 40, 0, 0, 0, -40 40M 58 386h 32a 24 24, 0, 0, 1, 24 24v 32a 24 24, 0, 0, 1, -24 24h -32a 24 24, 0, 0, 1, -24 -24v -32a 24 24, 0, 0, 1, 24 -24" transform="rotate(-90,74,426)"/></clipPath><clipPath id="clip-path-corners-dot-color-0-1"><circle cx="74" cy="426" r="24" transform="rotate(-90,74,426)"/></clipPath></defs><rect x="0" y="0" height="500" width="500" clip-path="url('#clip-path-background-color')" fill="#fff"/><rect x="0" y="0" height="500" width="500" clip-path="url('#clip-path-dot-color')" fill="#000000"/><rect x="18" y="18" height="112" width="112" clip-path="url('#clip-path-corners-square-color-0-0')" fill="#000000"/><rect x="50" y="50" height="48" width="48" clip-path="url('#clip-path-corners-dot-color-0-0')" fill="#000000"/><rect x="370" y="18" height="112" width="112" clip-path="url('#clip-path-corners-square-color-1-0')" fill="#000000"/><rect x="402" y="50" height="48" width="48" clip-path="url('#clip-path-corners-dot-color-1-0')" fill="#000000"/><rect x="18" y="370" height="112" width="112" clip-path="url('#clip-path-corners-square-color-0-1')" fill="#000000"/><rect x="50" y="402" height="48" width="48" clip-path="url('#clip-path-corners-dot-color-0-1')" fill="#000000"/></svg>